<?xml version="1.0" standalone="no"?>
<!DOCTYPE svg PUBLIC "-//W3C//DTD SVG 20010904//EN"
 "http://www.w3.org/TR/2001/REC-SVG-20010904/DTD/svg10.dtd">
<svg version="1.0" xmlns="http://www.w3.org/2000/svg"
 width="2000.000000pt" height="2000.000000pt" viewBox="0 0 2000.000000 2000.000000"
 preserveAspectRatio="xMidYMid meet">

<g transform="translate(0.000000,2000.000000) scale(0.100000,-0.100000)"
fill="#000000" stroke="none">
<path d="M10404 17116 c-9 -25 0 -51 20 -54 26 -5 40 12 32 42 -7 29 -43 36
-52 12z"/>
<path d="M12727 16982 c-18 -19 -6 -52 18 -52 16 0 35 30 35 54 0 21 -33 20
-53 -2z"/>
<path d="M10988 16809 c-20 -11 -24 -59 -8 -90 13 -23 62 -26 80 -4 10 12 10
24 1 55 -6 22 -16 40 -21 40 -4 0 -14 2 -22 5 -7 2 -21 0 -30 -6z"/>
<path d="M11805 16518 c-35 -19 -45 -40 -45 -99 0 -59 9 -77 52 -100 25 -13
82 -4 103 17 20 21 19 80 -4 131 -27 58 -63 75 -106 51z"/>
<path d="M9970 16498 c0 -7 9 -47 20 -88 26 -99 25 -106 -10 -39 -38 74 -52
85 -75 58 -18 -19 -18 -22 -3 -52 9 -18 26 -51 38 -75 l21 -42 -25 -11 c-21
-10 -28 -7 -67 37 -87 94 -92 95 -54 8 14 -31 24 -62 22 -67 -2 -8 -87 97 -87
109 0 4 -11 19 -24 34 -20 24 -26 27 -41 17 -15 -12 -13 -22 24 -121 23 -60
41 -111 41 -113 0 -17 -26 21 -66 97 -26 50 -53 90 -61 90 -16 0 -18 9 18 -90
70 -194 74 -210 59 -220 -17 -11 -37 3 -46 33 -4 12 -15 33 -24 47 -10 14 -33
54 -53 90 -34 63 -60 91 -73 78 -6 -7 16 -85 41 -143 17 -39 35 -95 35 -108 0
-6 -34 43 -76 109 -86 135 -100 152 -113 139 -6 -6 14 -73 52 -173 66 -178 66
-182 -1 -182 -83 0 -497 -76 -712 -130 -1266 -317 -2251 -1013 -2977 -2105
-486 -732 -767 -1521 -836 -2350 -23 -282 -11 -829 24 -1080 14 -98 58 -372
65 -400 5 -18 -9 -27 -118 -69 -68 -27 -217 -85 -333 -131 -115 -45 -265 -103
-332 -129 -68 -26 -123 -51 -123 -55 0 -4 9 -16 20 -26 19 -17 21 -17 39 -1
12 11 20 13 23 6 2 -7 38 0 103 19 55 16 101 29 102 27 1 -1 -34 -24 -77 -51
-44 -28 -78 -54 -77 -60 2 -5 16 -12 31 -15 l28 -5 -50 -47 c-74 -67 -82 -116
-26 -153 l31 -21 -381 -230 c-209 -126 -414 -251 -454 -277 -40 -27 -161 -87
-270 -134 -108 -46 -201 -89 -207 -94 -6 -6 -5 -13 3 -18 9 -5 -3 -25 -43 -70
-55 -62 -66 -86 -42 -94 8 -2 -1 -20 -26 -50 -26 -32 -69 -64 -137 -103 -55
-31 -103 -60 -106 -65 -3 -5 5 -22 17 -39 18 -24 30 -30 58 -30 l36 0 -32 -20
c-18 -11 -33 -22 -33 -25 0 -3 9 -24 20 -45 20 -39 21 -40 68 -34 46 5 46 5
21 -10 -31 -18 -43 -42 -26 -50 8 -3 2 -14 -15 -30 -16 -14 -24 -27 -19 -30 4
-3 135 39 291 94 191 67 291 97 309 94 19 -4 88 21 248 90 121 52 245 104 275
115 29 10 125 47 213 81 563 218 765 287 1010 345 190 45 247 64 420 138 77
32 194 80 260 104 66 25 124 49 130 54 5 5 17 9 26 9 9 0 50 13 90 29 41 16
169 64 284 106 116 43 224 83 240 90 17 7 44 18 60 23 17 6 82 29 145 51 132
47 120 44 120 31 0 -6 -10 -14 -22 -19 -13 -5 -63 -27 -112 -50 -49 -23 -132
-60 -185 -83 -53 -22 -103 -47 -111 -54 -17 -16 -2 -47 127 -262 40 -67 86
-147 100 -177 24 -48 25 -57 13 -79 -17 -33 -27 -25 -72 61 -20 38 -59 106
-87 153 -27 47 -66 115 -86 153 -36 69 -63 90 -50 40 20 -80 181 -363 206
-363 5 0 9 -6 9 -12 1 -7 14 -29 30 -48 33 -38 37 -52 16 -69 -11 -10 -20 -3
-45 34 -17 25 -31 48 -31 52 0 3 -39 66 -86 142 -47 75 -91 145 -97 155 -84
139 -97 155 -130 156 -39 0 -27 -33 55 -158 46 -70 99 -149 116 -177 17 -27
67 -106 111 -174 l79 -124 -18 -39 c-34 -77 -33 -78 -118 59 -50 82 -103 164
-309 480 l-54 82 -34 -16 c-21 -10 -35 -24 -35 -34 0 -16 118 -198 406 -629
67 -100 73 -114 50 -123 -14 -6 -66 41 -66 59 0 5 -27 48 -60 94 -33 47 -66
99 -75 115 -8 17 -34 55 -57 85 -23 30 -54 76 -69 101 -15 25 -64 103 -109
172 -82 124 -82 125 -111 115 -16 -5 -32 -14 -35 -19 -4 -8 25 -55 141 -227
83 -123 365 -553 376 -572 15 -28 13 -45 -6 -73 -12 -17 -17 -13 -71 52 -32
39 -58 79 -59 89 -1 18 -21 51 -179 297 -46 72 -123 192 -171 268 -48 75 -92
137 -99 137 -26 0 -166 -54 -170 -67 -5 -13 23 -62 171 -303 29 -47 66 -113
84 -148 31 -62 102 -132 149 -147 11 -3 23 -18 26 -33 3 -15 8 -34 10 -44 3
-9 51 -61 109 -116 57 -55 108 -109 113 -119 15 -28 -35 -138 -54 -122 -8 6
-14 17 -15 23 0 6 -33 58 -74 116 -41 58 -103 148 -138 200 -36 53 -87 126
-116 163 -28 38 -51 70 -51 72 0 2 -36 57 -80 122 -45 65 -108 160 -142 211
-67 100 -76 105 -143 78 -45 -19 -45 -36 1 -139 103 -235 291 -489 591 -800
67 -70 123 -133 123 -140 0 -7 -39 -100 -86 -207 -48 -107 -104 -235 -126
-284 -21 -49 -48 -109 -60 -134 -19 -42 -92 -208 -283 -642 -75 -171 -223
-505 -255 -575 -36 -80 -275 -620 -308 -697 -12 -27 -25 -48 -31 -48 -9 0 -47
-75 -216 -425 -40 -82 -118 -244 -174 -359 -55 -115 -101 -215 -101 -222 0
-31 31 -11 54 34 25 46 25 46 20 12 -3 -19 -8 -41 -10 -49 -6 -20 15 -41 33
-34 14 6 15 -2 10 -55 -6 -57 -5 -62 13 -62 10 0 22 5 25 10 14 22 54 10 70
-21 14 -26 18 -29 32 -17 15 12 16 9 10 -19 -8 -40 4 -42 33 -5 19 24 20 25
15 4 -8 -29 14 -30 38 -1 24 27 28 22 17 -24 -7 -31 -5 -39 10 -47 10 -6 22
-19 25 -31 11 -33 31 -7 91 118 30 63 58 111 62 109 13 -8 28 7 62 64 57 95
184 267 203 276 11 5 45 53 76 107 72 126 172 235 143 156 -5 -13 -13 -51 -17
-84 -6 -53 -5 -58 9 -46 8 7 26 34 39 61 50 100 113 199 129 203 9 3 18 17 20
33 2 15 9 29 17 32 10 4 12 -9 9 -62 -3 -37 -2 -69 2 -71 5 -3 48 29 96 70 75
63 91 72 100 60 14 -19 29 -19 59 1 23 15 25 15 31 0 10 -25 31 -19 51 14 27
47 46 39 37 -15 -4 -30 -3 -45 5 -45 19 0 209 296 277 433 37 72 86 166 109
207 45 79 62 120 48 120 -4 0 -17 -13 -28 -29 -50 -76 -14 1 150 314 34 66 95
183 135 260 40 77 96 185 125 240 29 55 87 168 130 250 66 128 110 209 121
224 2 2 46 -20 98 -48 510 -275 948 -450 1426 -571 118 -30 334 -75 405 -84
22 -3 85 -12 140 -20 289 -43 783 -56 1035 -28 626 69 1127 203 1663 444 231
103 641 325 832 449 49 33 93 55 97 51 18 -18 116 -327 104 -331 -86 -28 -107
-68 -81 -158 29 -100 103 -149 162 -108 20 14 21 12 33 -31 15 -54 37 -67 58
-35 15 21 16 20 48 -56 34 -80 41 -113 25 -113 -5 0 -24 -12 -41 -27 -29 -24
-32 -31 -28 -73 6 -56 43 -135 78 -162 19 -15 36 -19 72 -16 l47 5 29 -71 c16
-39 58 -141 93 -226 60 -148 78 -180 151 -278 22 -30 29 -45 21 -50 -20 -12
-33 -60 -24 -84 5 -13 19 -32 31 -43 13 -11 40 -47 61 -80 22 -33 39 -55 39
-50 1 14 110 -196 116 -222 2 -12 27 -61 55 -110 29 -48 66 -115 83 -147 17
-32 43 -71 57 -85 14 -14 41 -51 60 -81 53 -84 53 -84 41 -76 -19 12 -14 -7
13 -47 14 -20 32 -37 40 -37 7 0 17 -5 21 -12 4 -7 3 -8 -4 -4 -7 4 -12 4 -12
0 0 -11 101 -183 112 -190 20 -13 29 12 19 57 l-9 44 37 -43 c20 -23 97 -151
171 -285 274 -496 329 -588 417 -697 38 -47 79 -100 92 -117 24 -35 51 -44 51
-18 0 9 -9 33 -20 55 -22 43 -25 64 -10 58 5 -1 38 -43 73 -93 43 -62 70 -91
86 -93 21 -3 22 -1 16 27 -3 17 -4 40 0 51 6 18 8 18 28 6 20 -13 31 -11 102
17 104 41 105 42 105 81 0 29 6 37 50 64 28 17 50 35 50 40 0 5 -13 41 -29 80
-16 39 -26 73 -23 77 3 3 26 -34 51 -82 57 -109 77 -120 66 -37 -22 178 -119
506 -215 724 -82 187 -110 250 -133 300 -61 134 -141 318 -152 351 -7 20 -18
45 -23 55 -36 66 -119 317 -151 454 -58 245 -110 416 -204 665 -75 202 -127
362 -127 393 0 63 -34 191 -75 282 -24 52 -91 194 -150 315 -168 346 -235 508
-365 880 -17 50 -44 126 -60 170 -15 44 -41 120 -56 168 l-29 89 26 46 c14 26
72 126 129 222 349 590 404 700 553 1116 8 21 41 111 74 199 151 401 159 436
178 815 20 397 20 696 0 704 -8 3 -45 -3 -82 -14 -38 -11 -93 -27 -123 -36
-30 -8 -69 -20 -86 -25 -17 -5 -38 -9 -47 -9 -24 0 -26 -8 -13 -104 7 -48 12
-98 11 -110 -27 -313 -30 -336 -44 -336 -15 0 -24 180 -18 356 2 91 1 167 -4
170 -5 3 -26 0 -46 -5 -21 -6 -67 -17 -102 -25 -35 -9 -65 -17 -67 -19 -5 -5
-30 -154 -44 -257 -19 -147 -43 -250 -59 -250 -11 0 -13 13 -8 68 4 37 11 130
17 207 6 77 11 154 13 170 2 26 -2 30 -24 33 -14 2 -36 -5 -48 -15 -19 -16
-24 -36 -37 -152 -68 -618 -252 -1202 -488 -1546 -23 -33 -53 -73 -68 -88 -32
-33 -33 -32 -18 78 7 54 29 114 96 264 164 370 188 459 314 1167 34 196 36
220 14 228 -9 3 -45 1 -81 -4 -36 -6 -67 -9 -69 -7 -3 2 23 16 56 31 67 30
103 71 53 61 -15 -3 17 11 72 30 111 39 125 41 125 21 0 -29 50 -42 87 -23 22
12 23 14 8 27 -15 13 -10 16 47 32 80 23 94 22 43 0 -35 -16 -38 -19 -21 -29
14 -8 45 -3 125 19 58 17 122 34 141 38 19 5 60 15 90 23 30 8 134 36 230 61
96 25 252 66 345 91 94 25 225 59 293 77 78 20 122 36 122 45 0 18 2 18 -203
-31 -317 -78 -400 -96 -404 -93 -11 11 213 82 332 105 28 5 75 20 105 32 30
12 70 26 89 30 19 5 37 13 40 18 8 12 52 27 69 23 23 -4 119 28 387 129 143
54 298 110 345 125 81 25 305 75 435 96 33 5 186 40 340 78 254 63 411 99 655
151 128 28 152 42 63 36 -71 -5 -73 -4 -79 20 -9 36 -33 44 -100 34 -131 -18
-219 -41 -235 -60 -9 -10 -43 -26 -77 -34 -78 -21 -88 -19 -32 4 31 13 38 19
23 19 -12 1 -25 -3 -28 -9 -3 -5 -23 -10 -43 -10 -20 0 -81 -11 -137 -24 -327
-80 -438 -107 -510 -121 -44 -9 -100 -22 -125 -30 -55 -17 -135 -35 -174 -41
-16 -2 -47 -10 -70 -18 -38 -13 -83 -23 -196 -46 -98 -19 -277 -61 -305 -70
-16 -6 -73 -20 -125 -30 -52 -11 -117 -26 -145 -34 -27 -7 -84 -21 -125 -31
-79 -18 -322 -80 -550 -141 -275 -73 -727 -194 -775 -208 -68 -20 -264 -67
-477 -115 -97 -22 -188 -43 -203 -47 -23 -6 -26 -4 -23 12 2 15 32 26 153 57
181 46 257 65 310 77 69 15 1368 339 1410 351 22 6 65 17 95 24 182 43 316 78
325 86 5 5 24 9 42 9 19 0 50 7 70 15 19 8 47 15 62 15 14 0 39 7 55 15 16 8
49 18 74 21 25 3 53 9 63 15 10 5 29 9 43 9 14 0 48 9 76 20 28 11 64 20 79
20 16 0 42 7 57 15 16 8 45 15 65 15 19 0 40 5 47 12 7 7 36 15 64 19 29 4 80
15 113 24 108 28 279 70 409 100 37 8 73 18 79 22 6 4 27 8 47 10 19 2 48 11
64 19 16 7 43 14 60 14 17 0 42 6 57 13 14 8 49 17 79 20 29 4 57 12 60 18 4
6 28 12 54 13 25 1 51 8 58 15 11 11 4 13 -41 8 -30 -4 -59 -11 -65 -17 -5 -5
-21 -10 -34 -10 -26 0 -132 -24 -203 -46 -26 -8 -54 -14 -63 -14 -9 0 -72 -13
-139 -29 -67 -16 -174 -41 -237 -56 -63 -15 -119 -31 -124 -36 -6 -5 -24 -9
-40 -9 -39 0 -210 -42 -214 -52 -2 -4 -21 -8 -43 -8 -21 0 -56 -6 -76 -14 -21
-8 -59 -17 -85 -21 -26 -3 -50 -10 -53 -16 -4 -5 -19 -9 -35 -9 -16 0 -73 -12
-127 -26 -54 -14 -109 -28 -123 -30 -33 -7 -254 -59 -355 -85 -44 -11 -106
-27 -137 -35 -32 -8 -84 -21 -115 -29 -269 -69 -440 -113 -563 -145 -232 -61
-540 -140 -605 -156 -118 -28 -191 -45 -235 -53 -25 -5 -87 -19 -138 -31 -51
-12 -96 -20 -98 -17 -12 11 245 87 367 107 25 5 205 49 400 98 195 50 471 120
614 157 143 36 267 69 275 72 8 4 40 13 70 20 102 25 125 31 265 68 154 40
232 60 315 79 61 15 120 30 195 51 28 8 64 16 80 18 32 5 90 19 195 47 104 29
197 50 218 50 11 0 33 7 48 15 16 8 44 15 61 15 33 0 83 10 183 38 30 8 75 19
100 23 25 4 88 17 140 29 52 12 124 28 160 35 36 8 94 22 130 30 36 9 88 20
116 24 28 5 212 44 410 86 257 56 365 83 380 96 11 11 35 19 52 19 18 0 32 5
32 10 0 15 -57 12 -72 -4 -18 -18 -178 -33 -178 -17 0 21 -81 11 -305 -36 -66
-14 -138 -29 -160 -33 -52 -10 -159 -35 -210 -48 -22 -6 -65 -15 -95 -22 -30
-6 -86 -20 -125 -30 -68 -18 -252 -59 -385 -85 -67 -14 -198 -45 -375 -92 -55
-14 -120 -29 -145 -33 -25 -4 -56 -12 -70 -17 -14 -6 -46 -13 -72 -17 -26 -4
-50 -11 -53 -17 -4 -5 -22 -9 -41 -9 -20 0 -44 -5 -54 -10 -11 -6 -50 -17 -87
-24 -111 -24 -174 -39 -718 -176 -1120 -283 -1077 -273 -1086 -258 -5 7 -9 16
-9 21 0 10 43 26 105 38 27 5 75 16 105 24 30 8 114 28 185 45 204 48 501 118
610 145 55 13 150 36 210 50 61 14 126 29 145 35 19 5 132 32 250 60 118 27
240 57 270 65 53 14 100 25 340 80 168 38 280 65 320 75 19 6 64 17 100 25 36
9 94 23 130 31 36 9 81 19 100 24 60 13 133 32 182 46 26 8 55 14 64 14 9 0
40 6 68 14 73 20 198 52 286 71 41 10 93 24 115 31 23 8 49 14 59 14 35 0 347
78 319 79 -7 1 -13 5 -13 10 0 5 29 14 65 21 36 7 64 14 62 17 -10 10 -406
-55 -562 -91 -33 -8 -107 -24 -165 -36 -58 -12 -134 -28 -170 -36 -36 -8 -85
-19 -110 -24 -25 -6 -97 -22 -160 -35 -63 -14 -146 -32 -185 -40 -38 -8 -99
-22 -135 -30 -36 -9 -85 -20 -110 -24 -25 -5 -65 -14 -90 -20 -172 -45 -254
-65 -313 -77 -37 -8 -76 -18 -87 -24 -10 -5 -31 -10 -46 -10 -15 0 -50 -6 -78
-14 -28 -8 -123 -31 -211 -50 -88 -20 -191 -45 -230 -56 -68 -20 -147 -41
-230 -60 -22 -5 -103 -25 -180 -45 -77 -20 -165 -42 -195 -49 -61 -15 -123
-31 -190 -51 -25 -7 -72 -20 -105 -28 -88 -23 -317 -86 -415 -114 -47 -14 -98
-29 -115 -33 -16 -4 -127 -39 -245 -78 -240 -79 -323 -101 -490 -132 -348 -65
-354 -66 -348 -49 5 14 25 20 158 44 46 9 91 22 100 29 13 12 246 79 650 187
80 21 177 48 215 59 39 11 144 38 235 60 182 45 262 65 332 86 26 8 54 14 63
14 9 0 49 9 88 20 40 12 88 25 107 30 19 4 73 18 120 30 47 11 110 27 140 35
104 26 185 47 232 61 26 8 58 14 72 14 14 0 43 6 63 14 21 7 61 18 88 24 28 5
77 18 110 27 75 21 152 40 230 58 33 8 76 19 95 25 55 17 197 51 295 71 22 5
85 21 140 36 55 15 147 37 205 51 58 13 134 31 170 39 229 57 354 86 588 134
173 36 247 62 176 61 -72 -1 -279 -37 -276 -48 1 -7 -2 -12 -7 -12 -5 0 -18
-3 -28 -7 -16 -6 -16 -5 -4 10 12 15 11 17 -3 17 -59 0 -322 -36 -771 -106
-336 -52 -586 -83 -687 -86 -65 -2 -118 -1 -118 2 0 10 76 38 120 45 85 13
265 79 268 98 2 12 -3 17 -18 17 -17 0 -251 -44 -344 -65 -49 -11 9 15 89 39
50 15 108 34 130 41 22 7 72 22 110 34 86 26 98 33 89 55 -5 14 -14 17 -38 12
-232 -47 -359 -65 -576 -81 -140 -10 -271 -24 -335 -35 -128 -23 -345 -62
-445 -81 -99 -18 -106 -18 -117 -2 -7 9 -13 22 -13 29 0 7 -31 104 -69 216
-59 175 -98 278 -176 463 -33 77 -187 380 -247 484 -271 470 -633 906 -1058
1272 -551 475 -1258 873 -2088 1175 -51 18 -97 36 -101 38 -7 5 10 86 43 196
27 91 16 103 -41 48 -30 -29 -33 -30 -33 -11 0 12 -5 34 -11 50 l-11 28 -31
-38 c-18 -20 -40 -37 -50 -37 -16 0 -17 7 -11 78 l7 77 -22 -19 c-11 -11 -21
-25 -21 -33 0 -8 -4 -11 -10 -8 -5 3 -10 19 -10 35 0 33 -28 47 -59 31 -16 -9
-21 -7 -26 9 -9 29 -39 25 -78 -10 -19 -16 -37 -30 -40 -30 -3 0 -3 23 0 50 5
41 3 50 -10 50 -9 0 -19 -4 -22 -10 -12 -20 -27 -9 -46 36 -11 25 -27 48 -34
50 -7 3 -37 -11 -67 -31 -41 -28 -54 -33 -56 -22 -4 20 -24 27 -98 34 l-62 6
-21 -42 c-12 -22 -25 -41 -30 -41 -9 0 -89 81 -151 153 -32 37 -60 48 -60 25z
m-215 -548 c3 -5 2 -10 -4 -10 -5 0 -13 5 -16 10 -3 6 -2 10 4 10 5 0 13 -4
16 -10z m1560 -261 c15 -14 -9 -11 -139 20 -66 16 -139 33 -161 38 -35 7 -40
12 -37 33 1 13 9 34 17 46 14 22 14 21 162 -53 81 -41 152 -79 158 -84z
m-1726 86 c28 -59 27 -60 -13 -36 -46 29 -68 26 -88 -9 -16 -29 -18 -29 -115
-32 -72 -2 -97 -6 -95 -15 1 -10 -20 -13 -82 -13 -57 0 -89 -4 -98 -13 -7 -7
-24 -17 -38 -20 -143 -40 -224 -58 -293 -62 -132 -10 -191 -28 -367 -114 -82
-39 -128 -52 -115 -31 14 23 -34 7 -95 -30 -42 -26 -77 -40 -99 -40 -35 0
-210 -83 -270 -128 -19 -14 -75 -42 -125 -61 -102 -41 -118 -49 -112 -59 2 -4
-5 -19 -16 -32 -13 -16 -18 -19 -14 -7 9 28 -13 20 -52 -19 -20 -20 -85 -61
-146 -91 -61 -30 -151 -85 -201 -122 -49 -37 -135 -97 -190 -133 -56 -37 -107
-78 -114 -91 -7 -13 -45 -43 -85 -65 -59 -34 -95 -66 -187 -169 -63 -70 -123
-136 -133 -147 -49 -50 -144 -157 -192 -216 -29 -36 -85 -103 -124 -150 -59
-70 -70 -90 -66 -112 6 -28 -14 -53 -43 -53 -10 0 -28 -24 -46 -60 -48 -98
-81 -147 -134 -202 -32 -33 -48 -58 -45 -68 4 -8 10 -15 15 -15 4 0 3 -14 -3
-30 -8 -24 -14 -29 -29 -25 -15 5 -23 -1 -35 -32 -9 -21 -28 -65 -42 -98 l-27
-59 -8 31 c-8 27 1 50 75 199 47 93 106 204 131 247 26 43 47 81 47 83 0 3 17
31 39 62 21 31 68 102 103 157 36 55 92 134 125 175 67 82 371 384 498 495 44
39 84 75 90 81 41 45 411 340 519 413 420 288 1072 554 1591 650 235 43 416
73 545 91 74 9 136 18 136 19 1 0 11 -19 23 -44z m239 33 c19 -19 14 -30 -8
-18 -11 6 -20 15 -20 20 0 14 14 12 28 -2z m1142 -158 c0 -10 7 -37 15 -61 23
-64 3 -75 -41 -25 -37 43 -42 70 -18 104 13 18 19 21 30 11 8 -6 14 -19 14
-29z m172 -15 c231 -37 476 -119 733 -245 330 -161 615 -360 1014 -709 77 -67
141 -125 141 -127 0 -3 -39 24 -87 59 -144 104 -207 146 -442 297 -123 79
-247 163 -277 187 -29 24 -58 43 -64 43 -6 0 -48 24 -94 54 -102 67 -149 91
-206 106 -24 7 -87 31 -140 55 -315 140 -530 235 -535 235 -3 0 -5 -6 -5 -13
0 -8 16 -22 35 -33 19 -10 35 -22 35 -26 0 -3 9 -9 19 -13 28 -9 93 -70 66
-62 -11 3 -54 15 -95 27 -175 50 -166 44 -184 109 -9 31 -16 60 -16 64 0 9 0
9 102 -8z m-1622 -81 c22 -56 17 -62 -67 -69 -90 -8 -237 -29 -338 -50 -38 -7
-108 -21 -155 -30 -167 -33 -390 -99 -650 -193 -267 -96 -659 -297 -966 -495
-459 -296 -875 -714 -1217 -1222 -109 -162 -211 -319 -251 -387 -15 -27 -30
-48 -32 -48 -4 0 163 339 175 355 5 5 43 71 86 145 196 339 297 464 613 767
224 213 298 277 460 392 484 342 960 574 1467 715 165 46 479 110 615 126 58
7 110 13 115 15 6 2 38 4 73 4 58 1 63 -1 72 -25z m1393 -67 c15 -30 27 -57
27 -61 0 -4 -22 5 -50 20 -27 15 -50 32 -50 38 0 15 29 56 38 56 5 0 20 -24
35 -53z m121 -71 c29 -39 33 -56 12 -56 -15 0 -68 75 -59 84 12 11 21 6 47
-28z m216 -1 c265 -75 549 -178 681 -247 112 -58 269 -181 384 -298 44 -46 76
-80 70 -78 -5 3 -129 71 -275 151 -283 154 -554 292 -740 376 -63 29 -122 56
-130 62 -8 5 -36 20 -62 34 -45 24 -63 39 -35 30 6 -2 55 -16 107 -30z m-1711
-19 c10 -12 0 -17 -56 -29 -37 -9 -120 -21 -183 -27 -135 -14 -391 -66 -540
-110 -58 -17 -127 -37 -155 -45 -27 -7 -108 -35 -180 -61 -71 -25 -154 -55
-184 -65 -30 -11 -90 -37 -135 -59 -44 -22 -86 -40 -93 -40 -7 0 -13 -4 -13
-9 0 -5 -12 -14 -27 -20 -16 -5 -59 -28 -98 -50 -38 -22 -84 -47 -102 -55 -28
-13 -133 -78 -202 -125 -13 -9 -31 -20 -40 -26 -9 -5 -30 -19 -46 -30 -50 -33
-69 -45 -92 -55 -13 -5 -23 -14 -23 -19 0 -5 -10 -13 -22 -17 -13 -4 -37 -17
-54 -30 -17 -13 -34 -24 -38 -24 -10 0 -70 -43 -79 -57 -4 -7 -15 -13 -23 -13
-8 0 -36 -19 -62 -43 -26 -24 -60 -51 -77 -62 -66 -41 -376 -355 -410 -415 -5
-10 -36 -46 -67 -81 -31 -35 -73 -86 -94 -114 -21 -27 -44 -54 -51 -58 -7 -4
-13 -12 -13 -17 0 -10 -73 -80 -78 -75 -9 9 167 264 217 314 9 9 42 48 72 86
66 83 203 222 279 285 30 25 57 47 60 50 19 20 145 123 190 156 30 21 68 49
85 61 54 39 316 214 357 238 189 112 348 196 467 247 52 22 101 43 110 48 68
35 531 200 561 200 7 0 26 6 43 13 33 14 94 33 212 66 39 11 120 27 180 35
346 51 386 54 404 32z m1639 -32 c13 -9 35 -27 49 -40 14 -13 31 -24 36 -24 6
0 8 -2 5 -5 -5 -5 -136 40 -145 49 -7 7 10 36 21 36 6 0 22 -7 34 -16z m-220
-50 c16 -11 22 -25 22 -54 l0 -39 -50 37 c-57 42 -66 72 -22 72 15 0 38 -7 50
-16z m121 -46 c13 -32 -4 -46 -29 -23 -26 23 -26 45 0 45 12 0 24 -9 29 -22z
m-1570 -14 c2 -2 1 -14 -3 -28 -7 -30 -20 -34 -311 -96 -359 -76 -499 -116
-750 -215 -495 -196 -1046 -510 -1335 -763 -257 -224 -473 -467 -655 -738 -98
-145 -117 -174 -131 -203 -4 -8 -22 -37 -41 -65 -18 -28 -33 -56 -33 -62 0 -7
-4 -14 -8 -16 -5 -1 -32 -42 -61 -90 -29 -49 -54 -88 -56 -88 -4 0 170 345
228 452 66 123 200 342 261 427 144 201 485 507 888 795 189 135 508 308 728
393 208 81 415 136 910 243 80 17 183 39 230 49 72 16 124 18 139 5z m122 -24
c-7 -38 -27 -40 -22 -2 4 33 10 44 20 37 5 -2 6 -18 2 -35z m1363 -80 c36 -59
41 -90 14 -90 -16 0 -82 126 -73 140 12 19 22 10 59 -50z m113 -26 c-10 -10
-48 27 -41 38 4 6 16 1 27 -11 12 -11 18 -24 14 -27z m401 21 c141 -45 496
-227 509 -262 8 -21 0 -24 -27 -9 -14 7 -79 41 -145 76 -66 35 -189 99 -274
142 -85 43 -151 78 -148 78 3 0 42 -11 85 -25z m-258 -35 c42 -11 94 -29 235
-80 196 -72 529 -279 647 -402 l26 -28 -24 0 c-23 0 -133 54 -659 325 -237
122 -256 134 -286 177 -20 28 -21 30 -3 25 10 -3 39 -11 64 -17z m-1660 0 c0
-18 -83 -210 -91 -210 -21 0 -15 25 28 119 42 90 63 121 63 91z m-144 -42
c-22 -113 -95 -172 -255 -209 -189 -43 -841 -260 -996 -332 -146 -68 -362
-197 -777 -461 -211 -135 -438 -367 -642 -656 -411 -581 -591 -944 -705 -1425
-7 -27 -16 -66 -21 -85 -37 -144 -121 -585 -140 -735 -32 -258 -8 -642 59
-937 l9 -37 -80 -31 c-44 -16 -83 -30 -88 -30 -11 0 -24 509 -17 687 22 529
101 969 259 1438 43 129 152 431 173 480 7 17 34 82 60 145 239 589 535 972
1065 1377 99 75 325 233 335 233 3 0 29 16 59 35 223 142 562 302 833 393 252
85 673 177 827 181 l49 1 -7 -32z m1666 5 c21 -19 24 -43 5 -43 -11 0 -37 39
-37 55 0 10 14 4 32 -12z m-71 -70 c26 -68 37 -114 26 -110 -10 3 -57 109 -57
129 0 19 21 6 31 -19z m224 -3 c17 -11 25 -20 18 -20 -19 0 -63 22 -63 32 0
13 13 10 45 -12z m-120 -7 c18 -45 52 -173 47 -178 -3 -3 -13 -5 -22 -5 -12 0
-23 24 -42 93 -14 50 -24 95 -21 100 8 13 31 7 38 -10z m331 -112 c232 -116
343 -195 588 -416 54 -49 183 -161 285 -248 268 -228 394 -343 554 -507 157
-161 185 -193 279 -325 77 -108 105 -154 164 -277 52 -105 51 -107 -6 -19 -22
34 -45 68 -50 74 -6 7 -28 39 -49 72 -22 33 -56 78 -75 100 -20 22 -49 58 -63
80 -73 108 -381 425 -528 543 -38 31 -77 63 -86 72 -9 8 -29 24 -45 35 -15 11
-53 41 -85 68 -83 69 -369 267 -385 267 -8 0 -14 4 -14 9 0 11 -308 164 -462
231 -165 71 -211 109 -243 201 -8 23 -15 60 -15 82 l0 40 48 -6 c32 -4 97 -30
188 -76z m-2016 -81 c-19 -12 -30 -12 -30 -1 0 10 31 20 40 14 2 -2 -2 -8 -10
-13z m-175 -19 c3 -5 -21 -15 -52 -21 -32 -6 -87 -18 -123 -26 -71 -16 -513
-166 -631 -214 -41 -16 -77 -30 -81 -30 -4 0 -40 -15 -80 -34 -40 -19 -107
-50 -149 -69 -92 -41 -169 -86 -404 -232 -171 -106 -282 -169 -260 -147 12 12
341 221 495 315 105 64 354 195 426 224 61 25 335 112 464 148 74 20 178 50
230 65 98 30 155 37 165 21z m3135 -94 c97 -55 114 -66 269 -185 326 -249 643
-571 893 -909 210 -281 415 -635 513 -883 45 -114 137 -391 132 -396 -2 -2
-21 42 -41 99 -45 121 -122 286 -260 555 -56 109 -222 376 -293 472 -321 429
-606 729 -978 1030 -27 23 -59 49 -70 58 -11 10 -42 33 -68 52 -27 19 -69 52
-95 74 -25 21 -63 50 -84 63 -21 14 -38 27 -38 29 0 6 36 -11 120 -59z m-1200
-8 c0 -6 -7 -6 -20 1 -11 6 -20 15 -20 21 0 6 7 6 20 -1 11 -6 20 -15 20 -21z
m-1869 -150 c-132 -298 -151 -333 -168 -315 -3 3 33 98 82 211 60 141 95 211
113 225 14 11 27 19 29 16 2 -2 -23 -64 -56 -137z m-119 114 c-4 -10 -37 -77
-74 -149 -54 -106 -216 -518 -331 -839 -8 -22 -28 -78 -44 -125 -17 -47 -81
-220 -143 -385 -61 -165 -119 -320 -127 -345 -43 -126 -104 -227 -155 -258
-52 -31 -187 -73 -214 -66 -25 6 -57 -13 -74 -46 -5 -9 -25 -72 -45 -140 -35
-120 -37 -133 -45 -350 -11 -276 -24 -393 -56 -490 -38 -113 -172 -373 -230
-443 -75 -93 -164 -218 -164 -232 0 -8 -59 -32 -147 -60 -239 -76 -411 -138
-623 -225 -146 -59 -546 -210 -558 -210 -5 0 -12 91 -16 203 -6 198 6 431 34
635 5 42 15 115 21 162 61 488 133 746 369 1320 229 557 329 720 625 1015 99
99 215 207 259 240 250 190 415 301 581 390 50 26 108 58 130 70 68 37 305
141 405 178 146 54 348 110 560 155 67 15 70 14 62 -5z m2140 -13 c24 -17 67
-47 96 -67 57 -40 67 -51 25 -30 -176 86 -197 100 -176 120 9 10 8 10 55 -23z
m1106 -155 c129 -102 237 -185 241 -185 4 0 39 -29 77 -65 38 -36 72 -65 76
-65 16 0 323 -300 400 -390 43 -52 136 -189 239 -352 47 -75 226 -392 287
-508 18 -36 47 -87 63 -115 34 -59 169 -326 221 -440 54 -116 68 -161 68 -219
l-1 -51 -19 37 c-11 20 -33 72 -49 117 -67 183 -384 812 -443 881 -10 11 -18
23 -18 26 0 3 -39 71 -87 151 -49 80 -97 160 -108 179 -28 51 -146 205 -240
314 -94 109 -490 496 -610 595 -44 37 -142 112 -217 167 -76 55 -138 101 -138
104 0 18 56 -20 258 -181z m-288 24 c354 -230 531 -368 756 -593 211 -212 340
-374 474 -596 93 -154 482 -930 566 -1130 35 -83 30 -120 -17 -120 -6 0 -19
21 -31 48 -141 328 -330 713 -451 914 -103 172 -255 398 -320 472 -9 12 -52
62 -94 111 -124 144 -249 262 -563 530 -96 82 -213 186 -260 231 -327 315
-321 302 -60 133z m-926 -11 c14 -46 33 -103 41 -128 17 -55 75 -259 75 -265
0 -3 -6 -5 -13 -5 -10 0 -95 239 -158 444 -12 38 -12 36 10 36 15 0 24 -17 45
-82z m178 -51 c602 -449 1073 -887 1391 -1292 119 -152 115 -147 198 -270 78
-115 92 -138 195 -323 92 -165 216 -445 239 -542 l6 -26 -128 -17 c-70 -10
-171 -24 -223 -32 -144 -22 -441 -65 -565 -80 -60 -8 -126 -17 -145 -21 -44
-7 -45 -6 -100 116 -23 52 -56 124 -72 160 -78 167 -105 227 -175 390 -266
618 -315 744 -290 753 8 2 7 77 -6 266 -9 144 -19 267 -22 272 -4 5 -16 9 -28
9 -12 0 -34 8 -48 18 -116 77 -187 137 -177 147 4 4 38 -11 74 -34 59 -37 71
-41 92 -32 35 17 24 39 -38 73 -76 41 -143 110 -179 182 -36 75 -106 346 -88
346 2 0 42 -28 89 -63z m1506 44 c3 -8 -1 -12 -9 -9 -7 2 -15 10 -17 17 -3 8
1 12 9 9 7 -2 15 -10 17 -17z m202 -31 c0 -5 -4 -10 -10 -10 -5 0 -10 5 -10
10 0 6 5 10 10 10 6 0 10 -4 10 -10z m-42 -59 c6 -18 -11 -12 -43 14 l-30 25
35 -14 c19 -8 36 -19 38 -25z m-1164 -40 c159 -92 294 -182 377 -252 42 -35
119 -99 170 -141 317 -259 644 -645 871 -1028 70 -118 209 -406 266 -550 87
-220 111 -302 98 -336 -5 -14 -9 -13 -26 9 -11 14 -19 29 -18 34 3 12 -70 211
-116 318 -7 17 -19 46 -26 65 -51 137 -274 553 -364 678 -82 114 -175 233
-230 296 -65 74 -261 274 -311 316 -17 14 -59 51 -95 82 -36 31 -159 126 -275
212 -243 182 -339 255 -363 276 -33 30 -76 80 -68 80 4 0 54 -26 110 -59z
m1291 19 c3 -5 2 -10 -4 -10 -5 0 -13 5 -16 10 -3 6 -2 10 4 10 5 0 13 -4 16
-10z m-34 -72 l33 -41 -38 6 c-21 3 -41 8 -43 11 -5 5 6 66 12 66 2 0 18 -19
36 -42z m-1373 -5 c26 -21 54 -45 62 -55 8 -9 67 -60 130 -113 63 -54 153
-132 200 -175 47 -42 122 -110 168 -149 45 -40 82 -75 82 -78 0 -3 -35 24 -77
59 -43 36 -91 73 -108 84 -16 10 -45 32 -63 49 -19 16 -42 35 -51 40 -10 6
-24 16 -32 22 -45 39 -158 132 -180 148 -15 11 -68 53 -117 93 -82 66 -90 76
-79 93 6 10 13 19 15 19 2 0 25 -17 50 -37z m1653 -291 c10 -27 8 -27 -42 -2
-46 24 -44 41 2 31 20 -4 35 -15 40 -29z m254 -182 c3 -5 1 -10 -4 -10 -6 0
-11 5 -11 10 0 6 2 10 4 10 3 0 8 -4 11 -10z m-65 -71 c0 -49 -14 -48 -47 4
l-23 37 35 0 c34 0 35 -1 35 -41z m-1169 -46 c13 -16 12 -17 -3 -4 -17 13 -22
21 -14 21 2 0 10 -8 17 -17z m1240 -35 c7 -13 67 -106 134 -208 211 -321 224
-341 256 -419 17 -42 60 -145 95 -228 36 -84 69 -164 74 -178 l10 -25 -31 15
c-16 9 -34 26 -40 38 -5 12 -19 40 -32 62 -52 94 -108 225 -113 265 -3 28 -16
57 -38 84 -18 23 -63 99 -100 169 -86 164 -102 193 -131 231 -33 44 -117 216
-105 216 5 0 15 -10 21 -22z m-6743 -150 c-35 -46 -93 -120 -128 -166 -41 -54
-67 -79 -73 -73 -6 6 -3 18 9 33 39 50 247 288 251 288 3 0 -24 -37 -59 -82z
m3252 31 c0 -28 -4 -39 -15 -39 -11 0 -15 11 -15 38 0 21 3 42 6 45 14 13 24
-6 24 -44z m3780 21 c6 -11 8 -20 6 -20 -3 0 -10 9 -16 20 -6 11 -8 20 -6 20
3 0 10 -9 16 -20z m76 -122 c32 -51 78 -121 101 -156 24 -35 43 -66 43 -69 0
-3 28 -53 63 -112 35 -58 68 -117 75 -131 18 -38 74 -211 70 -216 -2 -2 -16
20 -31 49 -34 66 -120 227 -179 337 -25 47 -73 137 -105 200 -33 63 -70 132
-83 153 -12 20 -20 37 -17 37 3 0 31 -42 63 -92z m-3707 -258 c106 -287 98
-264 87 -268 -6 -2 -60 110 -122 250 -112 250 -113 253 -91 265 12 6 25 9 29
5 3 -4 47 -117 97 -252z m-1532 195 c-11 -31 -22 -53 -25 -51 -6 7 30 106 39
106 4 0 -2 -25 -14 -55z m1300 -63 c-71 -192 -337 -876 -442 -1137 -90 -224
-134 -321 -208 -460 -38 -71 -73 -138 -78 -150 -5 -11 -18 -33 -29 -50 -31
-47 -107 -204 -125 -262 -9 -28 -23 -60 -31 -70 -30 -40 -12 19 56 180 39 91
70 169 70 172 0 4 22 57 49 119 27 61 79 183 116 271 37 88 96 230 132 315 36
85 94 225 130 310 35 85 69 166 75 180 11 26 163 388 246 587 42 100 48 110
55 87 7 -18 2 -43 -16 -92z m2771 -85 c22 -34 58 -91 80 -127 21 -36 71 -116
111 -178 39 -62 71 -115 71 -117 0 -3 12 -24 27 -48 90 -143 242 -421 272
-497 5 -14 25 -60 45 -102 19 -43 34 -78 31 -78 -2 0 -18 26 -36 58 -18 31
-54 89 -81 129 -26 40 -48 75 -48 79 0 8 -22 46 -135 239 -224 381 -350 593
-373 628 -24 38 -52 93 -52 103 0 3 11 -3 24 -11 13 -9 42 -44 64 -78z m-2112
-25 c-6 -6 -26 43 -25 61 0 7 7 -3 15 -22 8 -18 13 -36 10 -39z m-2020 12 c-4
-14 -9 -24 -12 -21 -3 2 -2 17 2 31 3 15 9 25 11 22 3 -3 2 -17 -1 -32z m1554
-230 c83 -190 106 -253 100 -269 -6 -16 1 -43 25 -99 50 -115 51 -116 21 -116
-67 0 -104 -44 -113 -135 -7 -71 3 -118 33 -155 21 -24 34 -30 64 -30 52 0 80
14 110 55 14 19 28 35 31 35 7 0 11 -9 117 -260 139 -331 166 -399 160 -405
-3 -4 -91 -28 -194 -55 -104 -27 -234 -60 -289 -75 -55 -14 -170 -44 -255 -66
-85 -23 -213 -56 -285 -75 -270 -71 -519 -134 -521 -131 -2 2 84 208 192 458
191 444 303 707 391 919 24 58 52 123 62 145 17 36 43 98 168 395 52 125 55
132 66 121 5 -5 58 -121 117 -257z m567 83 c53 -114 377 -802 472 -1002 81
-169 87 -185 70 -196 -8 -5 -17 -9 -20 -9 -3 0 -21 35 -41 78 -143 309 -236
510 -273 587 -23 50 -54 115 -68 145 -13 30 -42 91 -62 135 -105 225 -165 358
-165 366 0 5 8 9 18 9 12 -1 32 -33 69 -113z m-210 -104 c50 -104 109 -226
131 -273 40 -85 153 -322 217 -455 76 -159 135 -286 137 -296 2 -6 -3 -14 -10
-16 -12 -5 -22 15 -114 217 -14 30 -46 98 -71 150 -24 52 -59 127 -77 165 -79
171 -123 263 -142 300 -26 49 -30 56 -59 123 -12 28 -26 52 -31 52 -4 0 -8 9
-8 21 0 12 -18 59 -40 106 -44 94 -44 93 -32 93 5 0 49 -84 99 -187z m-5077
63 c0 -12 -53 -96 -61 -96 -5 0 -9 3 -9 7 0 14 51 93 60 93 6 0 10 -2 10 -4z
m5175 -421 c21 -44 57 -120 80 -170 23 -49 65 -137 92 -195 127 -263 158 -341
179 -435 22 -103 22 -105 20 -105 -5 0 -63 122 -77 160 -7 19 -27 68 -46 108
-18 41 -33 76 -33 78 0 6 -94 220 -146 332 -19 40 -34 75 -34 77 0 2 -23 53
-51 112 -27 59 -64 137 -80 173 -17 36 -37 78 -45 93 -8 16 -17 47 -20 70 -5
35 6 20 59 -88 35 -71 81 -166 102 -210z m862 313 c-3 -8 -6 -5 -6 6 -1 11 2
17 5 13 3 -3 4 -12 1 -19z m-5832 -129 c-19 -52 -35 -101 -35 -109 0 -9 -4
-20 -9 -25 -5 -6 -23 -48 -39 -95 -69 -199 -104 -297 -118 -327 -7 -17 -14
-34 -14 -39 0 -12 -51 -138 -60 -147 -10 -11 32 172 55 244 42 126 247 618
252 602 2 -5 -12 -52 -32 -104z m380 94 c-4 -10 -16 -40 -27 -68 -10 -27 -30
-74 -43 -103 -14 -29 -25 -57 -25 -62 0 -5 -11 -33 -25 -62 -90 -190 -239
-737 -289 -1058 -9 -58 -21 -132 -26 -165 -15 -92 -38 -323 -50 -495 -6 -85
-12 -171 -13 -190 -1 -19 -6 86 -11 235 -5 148 -6 298 -3 335 20 214 33 295
81 510 31 143 138 508 186 640 17 47 35 96 40 110 21 63 170 373 184 382 19
13 28 9 21 -9z m-670 -23 c4 -6 2 -16 -3 -23 -5 -7 -13 -27 -17 -44 -3 -18
-12 -33 -19 -33 -11 0 -10 11 2 55 15 54 24 65 37 45z m5520 -406 c94 -202
171 -372 173 -378 2 -6 -4 -2 -14 9 -29 35 -344 699 -344 726 0 34 35 -34 185
-357z m-1192 319 c-8 -19 -73 -117 -73 -109 0 3 12 35 26 70 17 44 30 63 39
60 8 -3 11 -13 8 -21z m3726 -165 c28 -51 58 -104 66 -118 119 -201 227 -431
211 -447 -1 -2 -16 -5 -32 -9 l-29 -5 -104 263 c-58 145 -119 296 -137 336
-18 39 -31 72 -29 72 2 0 26 -42 54 -92z m-7275 -135 c-35 -89 -71 -186 -79
-215 -8 -29 -21 -73 -30 -98 -51 -140 -126 -441 -160 -645 -8 -44 -19 -105
-25 -135 -6 -30 -17 -107 -25 -170 l-14 -115 5 145 c3 80 7 156 9 170 2 14 11
75 20 135 38 253 123 572 195 730 11 22 35 81 55 130 76 188 102 242 111 233
1 -2 -26 -76 -62 -165z m8219 84 c-6 -11 -27 23 -37 63 -5 18 0 14 18 -14 14
-22 22 -44 19 -49z m-5623 53 c0 -13 -48 -110 -54 -110 -3 0 5 27 17 60 20 54
37 77 37 50z m-3390 -77 c0 -14 -19 -38 -25 -32 -8 8 5 39 16 39 5 0 9 -3 9
-7z m285 -133 c-8 -23 -15 -53 -15 -66 0 -12 -4 -25 -9 -28 -5 -3 -14 -26 -20
-50 -8 -34 -15 -44 -26 -40 -8 4 -15 8 -15 11 0 2 21 54 47 113 47 110 66 140
38 60z m8620 -122 c5 -21 3 -29 -9 -34 -22 -9 -24 -7 -45 69 -11 36 -22 76
-26 88 -3 13 12 -3 34 -36 22 -33 43 -72 46 -87z m98 -21 c-8 -13 -19 3 -41
63 -35 95 -34 97 6 20 22 -41 38 -79 35 -83z m-5838 91 c-22 -47 -45 -74 -45
-52 0 8 60 104 66 104 2 0 -8 -24 -21 -52z m819 4 c2 -4 -8 -30 -24 -57 -34
-58 -35 -57 -15 13 15 49 27 63 39 44z m1244 -227 c101 -203 242 -504 242
-517 0 -3 -11 -3 -24 -1 -24 5 -30 14 -64 93 -25 59 -89 202 -117 265 -88 191
-155 353 -155 371 0 9 2 15 4 13 2 -2 53 -103 114 -224z m-4428 -8 c-12 -51
-35 -146 -51 -212 -17 -66 -37 -147 -45 -180 -9 -33 -22 -85 -30 -115 -8 -30
-20 -82 -28 -115 -25 -102 -54 -201 -55 -183 -1 21 25 215 44 323 38 217 167
633 183 587 2 -7 -6 -54 -18 -105z m8123 9 c-3 -5 -12 2 -19 15 -7 13 -10 28
-7 33 3 5 12 -2 19 -15 7 -13 10 -28 7 -33z m1257 50 c0 -2 -9 -6 -20 -9 -11
-3 -18 -1 -14 4 5 9 34 13 34 5z m610 -76 c-8 -5 -28 -9 -45 -9 l-30 1 30 8
c17 4 37 8 45 9 13 1 13 0 0 -9z m-2840 -205 c0 -8 -13 -16 -32 -19 -18 -3
-114 -17 -213 -31 -292 -42 -428 -62 -639 -95 -109 -16 -202 -27 -207 -24 -23
14 -6 32 35 38 24 4 120 18 212 31 93 14 201 29 239 35 39 6 104 15 145 20
150 19 326 42 370 50 71 12 90 11 90 -5z m-1352 -40 c-3 -3 -9 2 -12 12 -6 14
-5 15 5 6 7 -7 10 -15 7 -18z m5389 -21 c-3 -3 -12 -4 -19 -1 -8 3 -5 6 6 6
11 1 17 -2 13 -5z m-3720 -60 c-3 -3 -12 -4 -19 -1 -8 3 -5 6 6 6 11 1 17 -2
13 -5z m-4998 -295 c-126 -287 -151 -339 -156 -323 -4 12 214 518 241 559 43
65 19 0 -85 -236z m4751 247 c0 -14 -50 -26 -185 -47 -33 -5 -73 -14 -90 -19
-33 -11 -122 -26 -235 -39 -41 -5 -113 -16 -159 -25 -87 -17 -139 -21 -128
-10 6 7 277 65 397 85 30 6 89 17 130 24 246 47 270 50 270 31z m2820 -156
c-8 -5 -19 -10 -25 -10 -5 0 -3 5 5 10 8 5 20 10 25 10 6 0 3 -5 -5 -10z
m-2780 -8 c0 -5 -31 -19 -70 -31 -64 -21 -69 -25 -64 -46 6 -23 4 -23 -103
-29 -141 -9 -358 -34 -406 -48 -29 -9 -40 -8 -50 1 -16 16 25 51 60 51 14 0
62 7 107 15 137 25 398 74 446 84 60 12 80 13 80 3z m2636 -28 c-26 -9 -51
-13 -54 -10 -8 9 40 25 73 25 25 0 22 -3 -19 -15z m-232 -53 c-11 -11 -125
-44 -130 -38 -6 5 130 56 135 50 3 -2 0 -7 -5 -12z m-6840 -148 c-31 -87 -60
-170 -66 -185 -5 -16 -14 -28 -19 -28 -22 0 -18 32 14 106 19 43 52 121 73
172 21 50 42 92 46 92 4 0 -18 -71 -48 -157z m6541 67 c-27 -12 -35 -12 -35 0
0 6 12 10 28 9 24 0 25 -1 7 -9z m-4942 -24 c11 -27 -1 -31 -273 -94 -47 -11
-219 -54 -382 -96 -163 -42 -304 -76 -312 -76 -9 0 -16 7 -16 15 0 8 2 15 4
15 2 0 136 34 297 76 162 41 312 79 335 84 22 5 51 13 65 19 44 17 123 39 183
50 33 6 62 13 64 16 10 10 30 5 35 -9z m4852 4 c-3 -5 -18 -10 -33 -9 -24 0
-25 1 -7 9 28 12 47 12 40 0z m-4535 -25 c8 -9 8 -15 2 -15 -18 0 -42 12 -42
21 0 14 26 10 40 -6z m4395 -4 c-6 -4 -32 -14 -60 -20 -27 -7 -59 -14 -70 -18
-14 -3 -17 -2 -10 5 6 6 35 17 65 25 65 18 88 20 75 8z m-4505 -21 c0 -12 -8
-22 -22 -25 -134 -30 -252 -55 -260 -55 -20 0 4 19 32 25 17 4 30 11 30 16 0
5 12 9 28 10 15 0 59 11 97 24 88 29 95 30 95 5z m3159 -44 c14 -17 10 -20
-54 -35 -176 -40 -228 -51 -232 -48 -2 2 52 20 119 41 67 20 127 41 132 46 14
14 21 13 35 -4z m-504 -145 c-6 -4 -23 -13 -40 -19 -16 -5 -38 -13 -47 -17
-11 -4 -18 -3 -18 4 0 6 21 17 48 25 56 18 70 19 57 7z m-4100 -20 c3 -5 -30
-17 -72 -27 -43 -9 -90 -23 -105 -30 -36 -18 -78 -18 -78 0 0 8 10 17 23 21
144 38 222 51 232 36z m605 -41 c-8 -5 -22 -9 -30 -9 -10 0 -8 3 5 9 27 12 43
12 25 0z m-1837 -35 c-9 -19 -20 -32 -25 -29 -10 6 19 64 32 64 5 0 2 -16 -7
-35z m4897 -15 c-8 -5 -19 -10 -25 -10 -5 0 -3 5 5 10 8 5 20 10 25 10 6 0 3
-5 -5 -10z m306 -9 c-4 -5 -29 -12 -56 -16 -27 -4 -52 -11 -56 -16 -3 -5 -18
-9 -34 -9 -16 0 -68 -9 -115 -20 -47 -11 -88 -20 -90 -20 -3 0 -5 10 -5 23 0
22 7 24 138 44 152 23 226 28 218 14z m-4476 -18 c-1 -19 -19 -35 -30 -28 -10
6 -9 11 5 22 22 15 25 16 25 6z m3937 -59 c-3 -3 -12 -4 -19 -1 -8 3 -5 6 6 6
11 1 17 -2 13 -5z m283 2 c0 -2 -7 -7 -16 -10 -8 -3 -12 -2 -9 4 6 10 25 14
25 6z m-400 -27 c-104 -22 -100 -22 -100 -5 0 15 39 21 140 23 37 1 31 -2 -40
-18z m-7423 -101 c-2 -24 -4 -7 -4 37 0 44 2 63 4 43 2 -21 2 -57 0 -80z
m9323 22 c0 -13 -1 -13 -10 0 -5 8 -10 22 -10 30 0 13 1 13 10 0 5 -8 10 -22
10 -30z m45 -77 c-4 -49 -13 -168 -21 -266 -8 -98 -14 -213 -14 -256 0 -56 -4
-82 -14 -90 -12 -10 -17 -9 -24 6 -13 24 -8 300 6 335 6 15 16 96 23 180 13
177 13 178 34 178 14 0 15 -12 10 -87z m-5107 15 c-5 -13 -161 -56 -207 -57
-48 -2 -6 17 94 42 122 30 118 30 113 15z m4052 -20 c0 -43 12 -68 31 -68 11
0 19 -3 19 -6 0 -4 -14 -50 -31 -103 -25 -78 -72 -278 -105 -456 -33 -171
-170 -541 -199 -536 -5 1 -25 72 -44 159 -25 116 -39 160 -52 170 -26 18 -24
30 6 38 29 7 31 20 7 52 -14 18 -29 23 -82 26 -80 4 -148 36 -206 98 -56 59
-85 113 -134 253 -23 66 -55 146 -71 177 l-29 58 23 4 c59 13 196 39 322 62
205 37 299 55 400 74 129 25 145 25 145 -2z m-4800 8 c0 -2 -13 -9 -30 -15
-24 -8 -30 -7 -30 5 0 9 10 14 30 14 17 0 30 -2 30 -4z m2380 -96 c0 -19 -7
-20 -90 -20 -84 0 -202 -21 -430 -75 -69 -16 -158 -37 -280 -65 -150 -34 -266
-61 -390 -90 -19 -5 -69 -16 -110 -25 -41 -9 -245 -59 -452 -111 -207 -51
-387 -94 -400 -93 -25 1 187 76 322 114 47 13 184 47 305 75 121 28 240 58
265 65 62 18 241 61 380 90 63 14 162 36 220 50 381 91 444 103 553 104 101 1
107 0 107 -19z m-3185 -9 c-3 -6 -11 -11 -17 -11 -6 0 -6 6 2 15 14 17 26 13
15 -4z m-2465 -182 c24 -138 61 -391 58 -394 -14 -12 -51 -25 -67 -25 -21 0
-21 4 -21 272 0 149 2 269 5 266 3 -2 14 -56 25 -119z m3880 106 c-43 -17 -50
-17 -50 -6 0 11 24 19 60 19 21 0 20 -1 -10 -13z m-4211 -32 c9 -35 30 -167
52 -333 10 -71 28 -182 35 -217 3 -17 -3 -26 -25 -38 -56 -29 -61 -24 -61 66
0 45 -4 156 -10 247 -15 257 -16 312 -8 312 4 0 12 -17 17 -37z m1877 22 c-22
-17 -56 -20 -56 -6 0 8 19 14 65 19 6 1 1 -5 -9 -13z m3894 -46 c-47 -10 -137
-30 -200 -45 -63 -14 -142 -31 -175 -39 -61 -14 -130 -29 -290 -64 -222 -49
-428 -97 -654 -152 -134 -33 -246 -58 -247 -56 -7 7 432 141 531 162 33 7 121
27 195 45 193 46 296 69 365 80 33 6 67 13 75 16 40 15 390 71 445 72 30 0 19
-4 -45 -19z m-5970 -85 c0 -14 -4 -23 -10 -19 -5 3 -10 15 -10 26 0 10 5 19
10 19 6 0 10 -12 10 -26z m6000 -16 c-41 -10 -95 -23 -120 -28 -25 -5 -92 -20
-150 -35 -58 -14 -116 -28 -130 -30 -76 -11 -230 -50 -230 -58 0 -10 76 -1
147 19 28 8 63 14 77 14 14 0 45 4 68 10 24 5 104 19 178 30 74 11 159 25 187
31 75 15 112 14 129 -2 12 -13 -7 -18 -144 -42 -86 -16 -195 -34 -242 -42
-167 -26 -480 -90 -520 -106 -14 -5 -48 -13 -75 -18 -134 -24 -181 -34 -190
-41 -5 -4 -30 -11 -55 -15 -98 -15 -666 -159 -1292 -328 -48 -13 -85 -20 -83
-16 13 20 172 69 464 140 367 91 581 148 596 159 6 4 30 10 55 13 25 3 59 13
75 21 17 9 37 16 46 16 26 0 162 36 186 49 12 6 33 11 47 11 16 0 26 6 26 15
0 19 10 20 -112 -10 -57 -14 -134 -32 -173 -40 -38 -8 -99 -22 -135 -30 -61
-14 -247 -55 -315 -69 -16 -4 22 12 85 34 63 22 129 44 145 50 17 6 59 20 95
31 36 10 94 28 130 39 404 125 1020 246 1255 248 l50 0 -75 -20z m3016 -65
c-10 -26 -18 -8 -9 23 5 21 8 24 11 11 2 -10 1 -25 -2 -34z m-8073 -100 c4
-19 2 -33 -3 -33 -6 0 -10 17 -10 37 0 43 5 41 13 -4z m5137 7 c-8 -5 -24 -9
-35 -9 l-20 0 20 9 c11 5 27 9 35 9 13 1 13 0 0 -9z m-6035 -185 c34 -143 31
-205 -9 -205 -25 0 -27 9 -41 270 l-6 95 21 -50 c11 -27 27 -77 35 -110z
m6319 118 c7 -16 46 -120 86 -233 292 -833 348 -971 638 -1555 141 -284 199
-409 176 -380 -67 86 -322 563 -418 785 -36 83 -172 422 -191 475 -8 22 -28
78 -45 125 -40 109 -270 794 -270 803 0 15 10 6 24 -20z m-96 -58 c12 -35 42
-122 67 -192 44 -123 84 -235 145 -408 92 -260 182 -499 221 -582 10 -24 19
-46 19 -49 0 -3 34 -86 76 -183 99 -231 234 -504 329 -665 41 -71 75 -134 75
-141 0 -20 -110 -110 -260 -212 -496 -338 -1102 -553 -1765 -625 -155 -17
-556 -17 -710 0 -589 64 -1080 222 -1570 505 -93 54 -260 163 -273 180 -8 10
10 38 74 117 47 58 109 134 138 170 66 81 83 95 115 95 20 0 33 12 58 50 18
27 35 54 37 60 2 5 6 7 10 4 4 -4 -7 -35 -24 -69 -17 -34 -30 -71 -28 -83 5
-32 73 111 99 209 18 67 22 119 28 354 4 169 12 285 19 302 6 15 24 55 41 90
16 35 37 93 46 128 37 145 118 244 251 307 39 18 135 49 215 69 189 45 308 76
514 135 256 72 485 133 630 168 201 48 543 128 615 145 354 81 647 150 705
166 39 10 73 19 76 19 3 1 16 -28 27 -64z m-599 51 c-2 -2 -21 -11 -42 -20
-27 -11 -37 -12 -35 -4 3 7 15 15 29 19 28 8 54 11 48 5z m-1784 -32 c-36 -28
-53 -35 -60 -23 -8 12 -9 12 30 26 43 16 53 15 30 -3z m502 0 c-3 -3 -12 -4
-19 -1 -8 3 -5 6 6 6 11 1 17 -2 13 -5z m1112 -8 c-2 -2 -24 -6 -49 -10 -53
-8 -47 4 7 14 36 6 52 5 42 -4z m-5099 -98 c0 -21 -4 -38 -9 -38 -9 0 -20 88
-12 96 9 9 21 -23 21 -58z m3790 52 c-19 -13 -30 -13 -30 0 0 6 10 10 23 10
18 0 19 -2 7 -10z m3880 -100 c0 -5 -7 -7 -15 -4 -8 4 -15 8 -15 10 0 2 7 4
15 4 8 0 15 -4 15 -10z m-3947 -17 c-7 -2 -19 -2 -25 0 -7 3 -2 5 12 5 14 0
19 -2 13 -5z m-1993 -13 c0 -5 -5 -10 -11 -10 -5 0 -7 5 -4 10 3 6 8 10 11 10
2 0 4 -4 4 -10z m-295 -50 c-69 -33 -85 -36 -85 -16 0 8 22 20 58 29 86 23 94
19 27 -13z m875 26 c0 -3 -4 -8 -10 -11 -5 -3 -10 -1 -10 4 0 6 5 11 10 11 6
0 10 -2 10 -4z m5540 -241 c31 -156 35 -215 17 -215 -17 0 -28 33 -32 98 -2
23 -9 76 -16 117 -10 67 -7 117 7 102 3 -3 14 -49 24 -102z m-4884 -21 c-23
-17 -36 -18 -36 -4 0 12 42 31 50 23 3 -3 -4 -11 -14 -19z m-1898 -11 c-10 -2
-28 -2 -40 0 -13 2 -5 4 17 4 22 1 32 -1 23 -4z m511 -17 c10 -12 8 -17 -9
-26 -26 -14 -31 -11 -23 18 6 26 16 28 32 8z m-620 -12 c-9 -8 -135 -60 -280
-113 -145 -54 -293 -110 -329 -124 -36 -14 -105 -39 -155 -57 -49 -17 -103
-37 -120 -44 -16 -7 -59 -23 -95 -36 -36 -13 -69 -27 -75 -32 -5 -4 -18 -8
-28 -8 -10 0 -31 -6 -45 -14 -15 -8 -56 -24 -92 -36 -36 -12 -74 -25 -85 -30
-11 -4 -47 -17 -80 -29 -33 -12 -67 -26 -75 -30 -9 -5 -30 -12 -48 -15 -17 -4
-34 -12 -37 -17 -4 -5 -14 -9 -23 -9 -10 0 -35 -9 -57 -20 -22 -11 -46 -20
-55 -20 -8 0 -28 -7 -44 -15 -15 -8 -34 -15 -42 -15 -14 0 -66 -20 -117 -46
-16 -8 -33 -14 -39 -14 -5 0 -24 -6 -41 -14 -18 -7 -68 -27 -112 -43 -130 -49
-123 -47 -95 -24 28 23 123 71 190 96 25 9 59 23 75 29 17 7 48 19 70 26 22 7
58 21 80 30 38 17 75 31 285 111 134 50 259 98 339 130 40 16 78 29 83 29 6 0
24 7 41 15 53 24 933 331 1017 354 2 0 -3 -6 -11 -15z m6849 -25 l-5 -24 -10
25 c-12 28 -6 47 9 32 5 -5 8 -20 6 -33z m-5781 -15 c1 -5 -11 -17 -27 -26
-38 -21 -53 -3 -19 23 25 19 40 20 46 3z m6505 -13 c-6 -28 -125 -311 -129
-307 -3 2 18 77 47 166 42 132 54 161 68 158 9 -3 16 -10 14 -17z m-709 -31
c3 -11 1 -20 -4 -20 -5 0 -9 9 -9 20 0 11 2 20 4 20 2 0 6 -9 9 -20z m-6989
-29 c3 -5 -1 -11 -9 -14 -9 -4 -12 -1 -8 9 6 16 10 17 17 5z m7580 -40 c5 -8
-25 -83 -134 -326 -10 -22 -47 -106 -84 -187 -36 -80 -66 -153 -66 -161 0 -7
-8 -23 -18 -35 l-19 -21 -16 33 c-40 84 -41 80 113 352 78 137 156 273 172
302 29 51 41 61 52 43z m406 -30 c13 -32 17 -22 -60 -143 -24 -38 -44 -68 -46
-68 -1 0 16 54 38 120 22 66 44 120 48 120 4 0 13 -13 20 -29z m-883 -80 c-42
-88 -44 -90 -56 -65 -6 14 -8 31 -4 37 15 27 96 127 100 124 2 -2 -16 -45 -40
-96z m-7287 79 c0 -5 -12 -10 -27 -9 -25 0 -26 1 -8 9 27 12 35 12 35 0z m809
-4 c-3 -3 -41 -20 -86 -40 -44 -19 -141 -61 -214 -94 -74 -33 -170 -74 -214
-91 -44 -18 -97 -41 -117 -52 -20 -10 -46 -19 -57 -19 -11 0 -23 -4 -26 -10
-3 -5 -13 -10 -22 -10 -8 0 -29 -6 -46 -14 -84 -38 -131 -56 -143 -56 -8 0
-22 -5 -32 -10 -9 -6 -80 -33 -157 -61 -77 -28 -153 -57 -170 -64 -90 -40
-129 -55 -144 -55 -9 0 -21 -4 -26 -8 -6 -5 -41 -19 -80 -32 -38 -12 -74 -26
-80 -30 -5 -5 -39 -18 -75 -29 -36 -12 -78 -28 -95 -36 -36 -17 -212 -85 -221
-85 -3 0 -111 -38 -239 -85 -129 -47 -240 -85 -247 -85 -19 1 79 46 282 132
14 5 39 16 55 24 17 7 44 16 60 20 17 3 35 12 40 19 6 6 28 15 50 18 22 4 41
11 43 17 2 5 13 10 24 10 11 0 34 6 51 14 18 7 55 21 82 31 28 10 64 23 80 30
17 7 58 23 93 34 34 12 70 25 80 30 21 11 104 41 115 41 4 0 24 7 45 16 20 8
68 26 107 40 38 13 74 29 79 34 6 6 18 10 28 10 17 0 65 18 121 46 16 8 36 14
46 14 9 0 26 7 37 15 10 8 26 15 34 15 26 1 294 108 298 119 2 6 15 11 29 11
14 0 41 7 61 16 103 45 123 57 114 66 -7 7 -21 5 -43 -6 -18 -9 -40 -16 -49
-16 -9 0 -25 -7 -36 -15 -10 -8 -29 -15 -41 -15 -12 0 -28 -7 -37 -15 -8 -8
-23 -15 -33 -15 -10 0 -31 -7 -47 -15 -15 -8 -33 -15 -40 -15 -13 0 -124 -44
-133 -54 -3 -3 -16 -6 -27 -6 -12 0 -32 -6 -46 -13 -14 -7 -54 -23 -90 -36
-36 -12 -73 -27 -83 -32 -9 -5 -50 -20 -91 -33 -41 -14 -99 -36 -129 -50 -29
-14 -63 -26 -74 -26 -10 0 -28 -7 -39 -15 -10 -8 -25 -15 -32 -15 -8 0 -28 -6
-45 -14 -18 -7 -79 -31 -137 -51 -58 -21 -109 -42 -115 -45 -5 -4 -24 -11 -42
-14 -17 -4 -37 -14 -44 -22 -6 -8 -24 -14 -38 -14 -15 0 -36 -7 -47 -15 -10
-8 -28 -15 -40 -15 -11 0 -29 -7 -40 -15 -10 -8 -28 -15 -39 -15 -11 0 -33 -7
-49 -15 -15 -8 -33 -15 -38 -15 -6 0 -24 -6 -41 -14 -18 -7 -59 -23 -92 -35
-33 -13 -73 -29 -90 -36 -16 -7 -55 -21 -85 -30 -59 -19 -106 -38 -156 -63
-33 -16 -68 -10 -62 9 3 10 190 85 368 148 118 42 326 121 342 131 10 5 23 10
30 10 7 1 31 9 53 20 22 11 46 19 53 20 7 0 20 4 30 9 16 9 243 93 407 152 44
16 89 33 100 38 11 5 112 43 225 86 113 42 241 90 285 106 44 16 127 47 185
69 58 21 138 50 178 65 54 21 76 25 85 16 8 -8 6 -15 -9 -26 -38 -29 11 -16
102 26 116 54 212 89 248 89 16 0 27 -2 25 -4z m86 -5 c6 -11 -82 -54 -99 -48
-10 3 71 57 86 57 4 0 9 -4 13 -9z m6524 -63 c-12 -29 -26 -66 -31 -83 -6 -16
-21 -53 -34 -82 -13 -28 -24 -57 -24 -62 0 -13 -20 -14 -39 -2 -11 7 2 37 64
145 42 75 79 136 81 136 2 0 -6 -24 -17 -52z m969 17 c4 -4 -40 -72 -71 -110
-14 -16 -28 -27 -31 -24 -3 3 8 40 25 82 29 72 33 76 53 65 11 -6 22 -12 24
-13z m-6231 -2 c-12 -39 -32 -91 -59 -151 -15 -34 -28 -66 -28 -71 0 -5 -6
-22 -14 -38 -19 -37 -52 -113 -77 -177 -25 -61 -35 -74 -50 -59 -10 10 42 146
126 328 13 28 37 80 54 118 16 37 35 67 42 67 6 0 9 -8 6 -17z m4933 -18 c0
-5 -5 -3 -10 5 -5 8 -10 20 -10 25 0 6 5 3 10 -5 5 -8 10 -19 10 -25z m-7360
-30 c0 -10 -10 -15 -29 -15 -16 0 -44 -2 -62 -5 -28 -4 -25 -2 16 14 62 24 75
25 75 6z m1540 -3 c0 -14 -48 -33 -55 -22 -4 6 4 14 17 19 30 12 38 13 38 3z
m4629 -470 c102 -235 187 -431 189 -436 3 -5 -1 -7 -9 -4 -12 4 -389 838 -389
860 0 5 6 8 13 8 6 0 95 -193 196 -428z m-6390 414 c-28 -23 -260 -125 -359
-157 -24 -8 -117 -43 -290 -109 -96 -37 -204 -77 -335 -125 -49 -18 -115 -42
-145 -54 -59 -23 -80 -26 -80 -12 0 7 74 38 255 105 17 6 37 15 45 21 8 5 24
11 35 12 11 2 37 10 58 18 36 15 79 31 155 59 71 26 127 48 160 62 18 8 39 14
46 14 7 0 25 10 40 21 15 12 30 19 33 16 3 -3 17 -1 32 5 59 24 127 50 151 58
14 5 61 22 105 38 74 28 104 37 94 28z m2189 -31 c-6 -14 -13 -23 -16 -21 -7
7 9 46 18 46 5 0 4 -11 -2 -25z m6296 3 c-10 -32 -60 -139 -192 -408 -63 -129
-134 -277 -158 -328 -40 -86 -45 -92 -64 -82 -12 6 -20 21 -20 36 0 14 47 112
104 218 113 208 185 343 226 421 31 60 99 165 106 165 3 0 2 -10 -2 -22z
m-160 -50 c-8 -24 -21 -52 -27 -63 -31 -55 -257 -508 -263 -527 -8 -27 -29
-49 -38 -41 -19 19 -3 86 41 169 75 144 90 171 113 209 27 43 68 120 105 195
27 54 62 99 77 100 4 0 1 -19 -8 -42z m-654 -28 c0 -16 -4 -30 -10 -30 -11 0
-14 43 -3 53 11 12 13 8 13 -23z m-5970 5 c0 -15 -256 -515 -264 -515 -13 0 2
94 26 164 35 104 108 235 166 297 48 52 72 70 72 54z m6830 -20 c0 -8 -4 -15
-10 -15 -5 0 -7 7 -4 15 4 8 8 15 10 15 2 0 4 -7 4 -15z m68 -70 c-12 -25 -23
-43 -25 -41 -7 7 30 96 38 91 4 -3 -1 -26 -13 -50z m-7883 -14 c-66 -26 -176
-69 -245 -96 -69 -26 -139 -54 -155 -61 -17 -8 -44 -18 -60 -23 -26 -8 -103
-37 -235 -87 -59 -22 -203 -75 -245 -90 -22 -8 -49 -19 -60 -24 -11 -6 -72
-28 -135 -51 -247 -87 -311 -110 -469 -168 -90 -34 -166 -60 -168 -58 -1 2 95
43 215 92 119 49 226 95 237 102 11 7 27 13 36 13 10 0 30 6 46 14 15 8 46 21
68 29 22 8 74 29 115 46 41 17 87 33 103 37 15 3 30 10 33 15 3 5 12 9 21 9 9
0 34 8 57 19 23 10 70 29 106 41 36 12 101 36 145 52 193 73 673 236 695 237
8 0 -39 -21 -105 -48z m1336 -63 c-28 -45 -51 -80 -51 -76 0 3 18 45 40 94 30
63 44 84 52 76 8 -8 -3 -33 -41 -94z m-837 50 c-3 -13 -13 -36 -21 -51 -8 -16
-35 -81 -59 -145 -25 -65 -48 -120 -52 -124 -7 -7 -152 221 -152 239 0 8 245
97 278 101 9 2 11 -5 6 -20z m533 -35 c-3 -3 -11 -2 -17 2 -9 6 -9 10 1 16 14
8 27 -7 16 -18z m5980 -25 c-3 -8 -6 -5 -6 6 -1 11 2 17 5 13 3 -3 4 -12 1
-19z m-529 -25 c6 -16 17 -45 26 -65 9 -21 12 -38 7 -38 -7 0 -61 111 -61 126
0 16 20 -1 28 -23z m-7588 -23 c-20 -13 -33 -13 -25 0 3 6 14 10 23 10 15 0
15 -2 2 -10z m1260 -61 c19 -34 47 -82 62 -108 15 -25 34 -59 42 -74 8 -15 24
-43 36 -62 14 -23 17 -36 10 -40 -6 -4 -12 -5 -14 -4 -1 2 -15 24 -31 48 -33
49 -49 75 -67 111 -7 14 -32 58 -56 98 -38 64 -46 92 -24 92 4 0 23 -28 42
-61z m7664 13 c2 -4 -15 -39 -38 -77 -23 -39 -62 -106 -86 -150 -58 -108 -160
-282 -247 -423 -11 -18 -17 -20 -33 -12 -18 10 -16 16 37 103 30 50 59 94 63
97 4 3 51 93 104 200 77 155 105 203 139 232 43 39 52 44 61 30z m-745 -43
c13 -38 13 -39 2 -39 -5 0 -11 8 -14 18 -2 9 -8 25 -12 35 -4 9 -3 17 3 17 6
0 15 -14 21 -31z m959 24 c-2 -5 -10 -21 -17 -38 -16 -37 -21 -46 -65 -118
-20 -32 -36 -63 -36 -69 0 -6 -7 -20 -16 -30 -9 -10 -45 -68 -80 -130 -35 -62
-68 -120 -74 -128 -6 -8 -16 -25 -23 -38 -25 -46 -155 -269 -181 -311 -23 -36
-30 -41 -37 -28 -12 21 1 54 74 175 34 57 67 111 72 120 6 9 35 59 65 110 30
51 65 110 77 130 12 20 25 42 30 47 9 11 51 79 98 160 44 77 99 155 108 155 5
0 7 -3 5 -7z m-1485 -93 c3 -11 3 -20 1 -20 -2 0 -8 9 -14 20 -6 11 -7 20 -2
20 6 0 12 -9 15 -20z m-8523 0 c-20 -13 -33 -13 -25 0 3 6 14 10 23 10 15 0
15 -2 2 -10z m2124 -110 c16 -57 16 -63 -3 -30 -23 39 -25 50 -12 50 5 0 12
-9 15 -20z m1626 -22 c0 -10 -4 -18 -10 -18 -5 0 -10 15 -10 33 0 24 3 28 10
17 5 -8 10 -23 10 -32z m-1100 -108 c-6 -11 -16 -18 -21 -14 -6 3 -3 12 8 20
24 18 26 17 13 -6z m-414 -47 c-7 -7 -26 7 -26 19 0 6 6 6 15 -2 9 -7 13 -15
11 -17z m-921 -3 c3 -5 -1 -10 -9 -10 -9 0 -16 5 -16 10 0 6 4 10 9 10 6 0 13
-4 16 -10z m-1545 -64 c0 -3 -4 -8 -10 -11 -5 -3 -10 -1 -10 4 0 6 5 11 10 11
6 0 10 -2 10 -4z m2434 -180 c-3 -9 -10 -16 -15 -16 -6 0 -5 9 1 21 13 24 24
20 14 -5z m-3654 -15 c0 -10 -100 -55 -107 -47 -5 4 84 55 100 56 4 0 7 -4 7
-9z m2930 -41 c34 -30 42 -42 33 -51 -9 -9 -19 -4 -43 22 -67 73 -61 92 10 29z
m690 -54 c0 -27 -22 -76 -35 -76 -10 0 -9 10 4 45 15 44 31 59 31 31z m387
-20 c-3 -7 -15 -46 -27 -87 -34 -113 -36 -118 -58 -112 -19 5 -18 9 15 109 29
86 38 104 55 104 13 0 18 -5 15 -14z m-480 -203 c-3 -10 -5 -4 -5 12 0 17 2
24 5 18 2 -7 2 -21 0 -30z m-3257 -45 c0 -12 -297 -104 -306 -96 -5 5 268 106
289 107 9 1 17 -5 17 -11z m3620 -63 c0 -36 -3 -65 -6 -65 -10 0 -74 41 -74
47 0 3 12 22 28 44 40 57 52 51 52 -26z m-421 -4 c8 -5 11 -16 6 -30 -7 -23
-40 -45 -54 -36 -11 6 -2 44 13 62 13 15 17 15 35 4z m5886 -88 c-31 -42 -143
-127 -280 -211 -111 -67 -456 -228 -678 -316 -391 -154 -677 -223 -1077 -261
-242 -24 -705 -16 -898 14 -125 19 -297 59 -289 67 2 2 41 -3 88 -11 718 -127
1445 -64 2092 180 255 96 412 171 640 309 65 39 130 78 145 86 38 22 125 80
207 138 39 27 72 48 74 46 2 -1 -9 -20 -24 -41z m604 -4 c13 -39 14 -49 2 -49
-9 0 -12 8 -27 63 -9 31 14 18 25 -14z m-6165 -56 c24 -35 26 -53 6 -53 -9 0
-50 71 -50 85 0 16 23 0 44 -32z m-434 -55 c0 -39 -12 -68 -26 -68 -15 0 -19
45 -8 74 9 24 34 19 34 -6z m1438 -15 c106 -61 426 -254 431 -259 10 -11 -452
226 -478 245 -14 10 -21 23 -17 29 10 16 11 16 64 -15z m-1070 -36 c25 -38 26
-46 10 -82 -14 -31 -17 -31 -55 1 l-32 26 22 44 c11 24 23 44 26 44 4 0 16
-15 29 -33z m1147 -143 c305 -172 648 -332 805 -376 305 -85 509 -130 765
-169 116 -17 695 -24 841 -9 66 6 160 15 209 20 177 16 415 67 645 139 139 43
237 81 405 156 292 131 381 167 465 186 101 22 122 24 100 8 -11 -8 -6 -9 23
-5 l38 5 -28 -32 c-80 -91 -256 -239 -352 -297 -163 -97 -859 -301 -1211 -354
-297 -44 -840 -68 -1055 -45 -352 36 -611 100 -930 227 -164 66 -564 244 -775
344 -133 64 -206 124 -196 161 11 45 58 137 69 137 7 0 89 -43 182 -96z
m-1609 -10 c-4 -9 -9 -15 -11 -12 -3 3 -3 13 1 22 4 9 9 15 11 12 3 -3 3 -13
-1 -22z m375 -73 l23 -19 -19 -42 -19 -42 -18 42 c-17 41 -17 80 2 80 4 0 18
-8 31 -19z m501 -3 c-7 -7 -12 -8 -12 -2 0 14 12 26 19 19 2 -3 -1 -11 -7 -17z
m553 -113 c501 -310 1066 -518 1626 -599 239 -35 332 -41 634 -41 368 0 545
18 892 89 318 65 772 227 1086 388 22 11 41 17 44 14 3 -3 0 -27 -7 -55 l-12
-49 -146 -75 c-197 -101 -395 -182 -577 -236 -94 -28 -282 -77 -325 -85 -421
-80 -527 -91 -940 -91 -410 0 -556 14 -915 86 -456 92 -922 272 -1310 507
-103 62 -205 131 -205 137 0 3 7 23 16 45 10 24 21 37 28 33 6 -3 56 -34 111
-68z m-600 -12 c-8 -46 -12 -53 -31 -53 -18 0 -18 9 1 54 20 48 39 48 30 -1z
m-363 -5 c-8 -8 -9 -4 -5 13 4 13 8 18 11 10 2 -7 -1 -18 -6 -23z m1996 -49
c134 -45 253 -90 265 -100 22 -18 -17 -6 -388 126 -231 83 -149 65 123 -26z
m3842 16 c0 -5 -15 -19 -33 -29 -40 -24 -179 -96 -185 -96 -5 0 91 79 122 100
11 8 34 25 50 38 28 23 46 18 46 -13z m-6010 -22 c0 -9 -131 -288 -139 -296
-32 -32 -5 49 99 290 6 15 15 20 25 17 8 -3 15 -8 15 -11z m7678 -375 c51
-118 86 -211 80 -214 -5 -3 -11 -4 -13 -3 -2 2 -36 78 -75 169 -67 153 -140
350 -140 374 1 12 4 4 148 -326z m-1652 266 c8 -19 12 -43 9 -53 -3 -10 -60
-53 -128 -96 -67 -43 -138 -88 -157 -101 -46 -30 -362 -189 -470 -236 -180
-79 -329 -129 -760 -253 -308 -89 -420 -99 -1310 -123 -382 -11 -384 -10 -949
129 -156 39 -292 68 -302 66 -42 -11 -557 211 -754 325 -33 19 -124 70 -203
113 -86 47 -141 83 -138 90 2 7 -2 25 -10 40 -15 28 -11 65 7 65 5 0 67 -35
137 -77 128 -77 480 -260 582 -302 478 -198 830 -291 1320 -347 183 -22 739
-25 905 -6 396 46 689 105 975 198 396 127 761 300 1095 518 72 47 131 85 133
86 2 0 10 -16 18 -36z m-4491 -266 c22 -9 76 -32 120 -51 159 -67 551 -197
596 -197 14 0 29 -4 34 -8 14 -12 248 -63 373 -82 31 -5 84 -14 117 -19 33 -6
94 -13 135 -17 41 -3 122 -10 180 -15 234 -20 757 2 930 41 25 5 90 17 145 26
55 8 132 24 170 33 39 10 95 24 125 31 30 7 73 18 95 25 22 7 65 20 95 28 101
29 184 56 285 93 55 20 118 43 140 51 22 7 54 20 72 28 17 8 34 15 38 15 3 0
30 11 58 24 231 106 279 117 157 37 -67 -44 -260 -134 -370 -171 -14 -5 -70
-25 -125 -45 -55 -20 -122 -42 -150 -50 -27 -7 -97 -27 -155 -45 -58 -17 -161
-44 -230 -61 -69 -16 -134 -31 -145 -34 -60 -16 -253 -44 -335 -50 -52 -3
-121 -11 -153 -16 -105 -18 -553 -11 -752 11 -234 26 -381 48 -480 70 -44 10
-105 23 -135 30 -88 19 -188 46 -295 81 -16 6 -59 20 -95 31 -132 42 -369 143
-551 233 -137 69 -334 178 -353 195 -4 5 88 -40 205 -99 118 -59 232 -114 254
-123z m4632 102 c-9 -24 -9 -33 1 -39 15 -9 -46 -58 -178 -143 -553 -357
-1176 -587 -1855 -688 -411 -60 -752 -70 -1205 -34 -175 14 -245 23 -455 60
-480 84 -1004 269 -1395 492 -176 100 -310 190 -310 207 0 8 9 24 20 35 23 23
70 27 70 7 0 -8 23 -27 52 -42 29 -16 99 -57 156 -92 56 -35 105 -63 108 -63
2 0 42 -18 88 -40 46 -22 91 -40 101 -40 10 0 73 -29 140 -65 68 -35 124 -62
127 -60 2 3 38 -4 79 -15 105 -29 106 -29 90 -39 -19 -12 -3 -19 71 -31 79
-12 188 -45 240 -71 21 -11 51 -19 68 -19 17 0 84 -13 148 -29 64 -17 173 -37
242 -46 69 -9 159 -25 200 -36 62 -16 128 -21 385 -27 518 -14 649 -10 790 22
66 15 170 34 230 42 61 8 137 24 169 34 33 11 86 20 118 20 47 0 58 3 58 17 0
15 2 15 19 -1 21 -19 51 -15 71 9 7 8 23 15 37 15 46 0 113 22 113 37 0 11 7
13 25 9 17 -4 48 5 102 30 43 20 139 52 213 70 125 32 180 54 136 54 -33 0 -6
18 58 40 35 11 67 27 70 35 10 27 56 47 115 50 75 3 208 68 203 99 -3 15 1 18
22 14 17 -3 31 1 42 13 10 11 22 19 29 19 13 0 129 76 243 160 64 47 131 74
154 63 3 -2 1 -17 -5 -33z m-6402 -83 c-4 -15 -13 -31 -21 -38 -18 -15 -18 -7
3 36 19 39 27 40 18 2z m1001 -31 c-14 -23 -43 -38 -34 -18 25 52 33 61 41 53
7 -7 4 -19 -7 -35z m-1056 -73 c0 -29 -12 -24 -17 7 -2 11 2 20 7 20 6 0 10
-12 10 -27z m8095 -223 c3 -5 1 -10 -4 -10 -6 0 -11 5 -11 10 0 6 2 10 4 10 3
0 8 -4 11 -10z m-760 -280 c3 -5 1 -10 -4 -10 -6 0 -11 5 -11 10 0 6 2 10 4
10 3 0 8 -4 11 -10z m28 -65 c14 -25 22 -47 18 -49 -6 -4 -51 74 -51 89 0 14
11 1 33 -40z m1031 -414 c-6 -6 -6 -7 -84 144 -65 125 -70 137 -42 111 l32
-30 1 35 c0 25 13 -4 49 -111 27 -79 47 -146 44 -149z m64 -136 c14 -29 -2
-34 -18 -6 -12 24 -13 31 -2 31 5 0 14 -11 20 -25z m16 -281 c23 -48 14 -54
-13 -9 -23 40 -25 45 -13 45 5 0 16 -16 26 -36z m-8342 -256 c-7 -7 -12 -8
-12 -2 0 14 12 26 19 19 2 -3 -1 -11 -7 -17z m8535 -164 c-8 -8 -46 60 -40 70
3 5 15 -8 25 -28 11 -21 17 -40 15 -42z m196 -449 c41 -93 91 -204 110 -245
32 -67 272 -652 283 -690 6 -19 -116 224 -180 361 -27 57 -76 159 -108 227
-32 67 -58 124 -58 127 0 3 -29 69 -64 148 -46 103 -65 158 -69 201 -3 33 -2
55 3 50 5 -5 42 -85 83 -179z m-9765 -169 c-12 -25 -26 -46 -30 -46 -12 0 -11
3 18 54 33 60 42 54 12 -8z m8876 -34 c31 -41 53 -78 50 -83 -14 -22 -32 -2
-78 84 -55 103 -52 103 28 -1z m146 -273 c0 -6 -4 -7 -10 -4 -5 3 -10 11 -10
16 0 6 5 7 10 4 6 -3 10 -11 10 -16z m422 -491 c15 -24 23 -45 17 -48 -5 -4 7
-22 27 -41 l35 -34 -21 55 c-12 30 -24 61 -27 68 -3 6 -1 12 4 12 7 0 83 -141
83 -155 0 -3 -7 -5 -15 -5 -10 0 -3 -20 26 -72 89 -161 140 -271 146 -313 3
-25 2 -45 -3 -45 -5 0 -82 134 -172 296 -128 234 -160 299 -151 310 17 21 21
18 51 -28z m786 -445 c23 -61 12 -73 -12 -13 -15 37 -22 79 -12 69 2 -2 13
-28 24 -56z"/>
<path d="M12070 13405 c0 -15 6 -25 14 -25 19 0 28 14 20 34 -10 25 -34 19
-34 -9z"/>
<path d="M12656 12811 c-27 -30 -34 -80 -21 -145 15 -75 38 -96 107 -96 45 0
54 4 84 36 19 19 34 43 34 52 -1 30 -36 96 -72 135 -29 31 -42 37 -75 37 -27
0 -46 -6 -57 -19z"/>
<path d="M13240 11480 c0 -5 7 -10 16 -10 8 0 12 5 9 10 -3 6 -10 10 -16 10
-5 0 -9 -4 -9 -10z"/>
<path d="M10400 10270 c-20 -7 -16 -8 23 -9 26 -1 47 4 47 9 0 12 -34 12 -70
0z"/>
<path d="M10268 10243 c-16 -2 -28 -9 -28 -15 0 -13 78 -4 93 11 11 11 -8 13
-65 4z"/>
<path d="M8802 9238 c-17 -17 -15 -84 3 -102 43 -43 111 49 69 95 -19 21 -54
25 -72 7z"/>
<path d="M13657 15562 c-34 -38 -9 -112 38 -112 44 0 63 81 27 113 -24 22 -45
21 -65 -1z"/>
<path d="M12785 15478 c-11 -6 -26 -18 -32 -26 -15 -18 -17 -90 -4 -110 12
-19 87 -28 106 -12 29 24 11 131 -25 150 -22 12 -20 12 -45 -2z"/>
<path d="M14022 14668 c-20 -20 -15 -86 7 -98 64 -34 103 35 53 93 -18 20 -43
22 -60 5z"/>
<path d="M14872 13184 c-37 -26 -46 -62 -26 -106 14 -30 23 -38 44 -38 40 0
61 21 67 68 4 29 1 49 -11 67 -19 29 -42 32 -74 9z"/>
<path d="M18400 12390 c-8 -5 -10 -10 -5 -10 6 0 17 5 25 10 8 5 11 10 5 10
-5 0 -17 -5 -25 -10z"/>
<path d="M18230 12310 c0 -13 11 -13 30 0 12 8 11 10 -7 10 -13 0 -23 -4 -23
-10z"/>
<path d="M17755 12054 l-50 -13 50 4 c27 3 54 10 59 15 13 13 4 12 -59 -6z"/>
<path d="M17623 12027 c-40 -9 -60 -27 -30 -27 23 0 86 21 92 30 7 12 -5 11
-62 -3z"/>
<path d="M3799 9191 c-76 -54 -98 -109 -64 -158 47 -66 209 -37 235 43 22 67
-33 154 -97 154 -11 0 -44 -18 -74 -39z"/>
<path d="M3196 9005 c-20 -18 -26 -33 -24 -53 3 -24 8 -27 43 -30 49 -4 78 15
78 51 0 59 -51 75 -97 32z"/>
<path d="M5254 7326 c-19 -19 -34 -41 -34 -49 0 -51 94 -65 135 -21 27 29 33
72 13 92 -24 24 -78 14 -114 -22z"/>
<path d="M5254 6790 c-44 -17 -41 -51 6 -70 51 -21 85 13 60 61 -11 20 -32 23
-66 9z"/>
<path d="M7193 6016 c-26 -23 -28 -29 -28 -98 1 -80 17 -133 46 -148 56 -31
127 9 153 87 21 62 20 95 -5 127 -46 58 -119 72 -166 32z"/>
<path d="M5943 4410 c-19 -8 -23 -17 -23 -50 0 -44 20 -61 49 -43 23 15 38 60
25 80 -13 21 -24 24 -51 13z"/>
<path d="M5332 3908 c-39 -50 -56 -140 -30 -166 14 -14 57 -16 92 -2 26 10 86
83 86 106 0 7 -12 26 -26 43 -21 26 -33 31 -69 31 -23 0 -47 -6 -53 -12z"/>
</g>
</svg>
